<?xml version="1.0" standalone="no"?>
<!DOCTYPE svg PUBLIC "-//W3C//DTD SVG 20010904//EN"
 "http://www.w3.org/TR/2001/REC-SVG-20010904/DTD/svg10.dtd">
<svg version="1.0" xmlns="http://www.w3.org/2000/svg"
 width="1024.000000pt" height="1024.000000pt" viewBox="0 0 1024.000000 1024.000000"
 preserveAspectRatio="xMidYMid meet">

<g transform="translate(0.000000,1024.000000) scale(0.100000,-0.100000)"
fill="#000000" stroke="none">
<path d="M4302 4038 c1 -20 6 -34 10 -32 5 3 6 17 4 31 -8 40 -17 41 -14 1z"/>
<path d="M4400 3867 c0 -60 7 -87 21 -87 8 0 5 51 -7 114 -7 39 -14 27 -14
-27z"/>
<path d="M5497 3863 c-12 -11 -8 -23 8 -23 8 0 15 7 15 15 0 16 -12 20 -23 8z"/>
<path d="M5353 3793 c-7 -2 -13 -10 -13 -17 0 -16 96 -21 105 -6 7 11 -3 13
-53 11 -19 0 -30 3 -27 9 7 11 6 11 -12 3z"/>
<path d="M5487 3745 c6 -11 8 -26 6 -32 -6 -18 14 -16 20 1 3 8 -4 22 -15 33
-20 18 -21 18 -11 -2z"/>
<path d="M5570 3740 c0 -5 4 -10 9 -10 6 0 13 5 16 10 3 6 -1 10 -9 10 -9 0
-16 -4 -16 -10z"/>
<path d="M5426 3731 c-8 -13 4 -42 15 -36 9 6 29 -26 29 -46 0 -9 -4 -8 -15 1
-8 7 -13 16 -10 20 3 5 -8 11 -25 15 -16 4 -30 11 -30 16 0 6 -4 8 -9 5 -5 -4
-11 -1 -13 6 -3 8 -7 6 -11 -5 -3 -9 -3 -16 1 -14 4 1 8 -2 9 -8 0 -5 -4 -8
-10 -6 -7 2 -20 4 -29 5 -13 0 -14 4 -6 13 8 10 5 12 -15 11 -20 -2 -23 -5
-15 -15 6 -8 8 -16 5 -19 -8 -9 -29 35 -22 46 3 6 2 10 -4 10 -5 0 -14 -8 -20
-17 -8 -14 -14 -16 -38 -7 -22 8 -44 5 -103 -13 -41 -13 -82 -26 -90 -30 -8
-3 -19 -5 -23 -4 -5 1 -6 -3 -2 -9 3 -5 1 -10 -5 -10 -6 0 -8 -4 -5 -10 10
-16 -7 -12 -28 8 -11 9 -17 11 -13 4 6 -10 0 -12 -26 -10 -58 5 -253 -14 -260
-26 -11 -16 -10 -38 2 -31 15 9 12 -21 -3 -37 -8 -7 -13 -21 -11 -31 1 -9 -2
-15 -7 -12 -4 3 -11 -7 -15 -22 -3 -15 -10 -41 -15 -57 -5 -16 -7 -47 -4 -70
4 -28 3 -35 -3 -21 -7 14 -16 -17 -35 -120 -32 -168 -50 -285 -45 -290 1 -2
73 -17 158 -35 137 -28 180 -33 365 -37 312 -8 537 23 802 112 139 46 407 170
398 184 -2 5 3 8 13 7 10 0 16 5 14 13 -2 8 3 11 13 8 8 -4 15 -2 15 4 0 6 5
7 10 4 6 -3 10 1 10 10 0 9 4 14 9 10 5 -3 17 2 25 11 9 8 16 13 16 9 0 -3 6
0 14 7 8 7 12 16 9 20 -2 4 2 5 10 3 7 -3 35 11 63 32 74 56 83 66 78 75 -3 4
0 8 6 8 6 0 8 5 4 11 -3 6 -17 8 -30 5 -17 -5 -24 -2 -24 8 0 18 -38 42 -59
37 -13 -2 -13 0 -2 13 11 13 11 16 0 16 -12 0 -12 2 0 9 8 5 9 11 3 15 -6 3
-17 -1 -25 -9 -17 -16 -47 -20 -47 -6 0 5 7 11 15 15 8 3 12 12 9 20 -7 19
-35 9 -32 -12 2 -9 -5 -16 -19 -17 -25 -2 -31 10 -10 18 7 3 5 6 -5 6 -12 1
-15 6 -11 17 5 14 3 15 -15 5 -28 -15 -28 -15 -26 18 1 22 -2 28 -12 24 -16
-6 -19 -23 -4 -23 6 0 10 -5 10 -11 0 -5 -4 -7 -10 -4 -5 3 -10 2 -10 -3 0
-12 29 -24 41 -16 5 3 9 1 9 -4 0 -5 -9 -12 -20 -15 -11 -3 -18 -1 -14 4 7 12
-13 11 -53 0 -24 -7 -35 -6 -44 5 -9 11 -6 16 16 24 14 5 30 10 35 10 5 0 11
4 14 8 7 11 -22 8 -59 -7 -20 -8 -31 -9 -33 -2 -2 6 -10 11 -18 11 -9 0 -12 5
-8 12 5 8 2 9 -12 4 -40 -16 -74 -19 -74 -7 0 8 -8 10 -22 6 -18 -6 -20 -4
-14 11 5 15 4 16 -5 7 -15 -15 -3 -33 24 -33 16 0 18 -3 9 -12 -9 -9 -16 -7
-31 6 -12 11 -25 15 -33 10 -10 -6 -10 -4 1 9 9 12 10 17 2 17 -7 0 -9 6 -6
13 4 6 0 5 -7 -4 -11 -13 -16 -14 -25 -4 -7 7 -9 16 -5 20 4 4 -2 6 -13 5 -33
-4 -41 0 -25 11 13 9 13 10 0 6 -8 -2 -14 -13 -12 -23 3 -15 1 -17 -9 -6 -7 6
-21 12 -32 12 -10 0 -15 5 -12 10 4 7 -3 9 -19 6 -18 -3 -23 -1 -19 10 4 10 0
12 -11 8 -9 -3 -13 -10 -10 -15 3 -5 -2 -6 -10 -3 -20 8 -21 24 -1 24 17 0 19
9 7 28 -10 15 -42 6 -38 -11 1 -7 1 -9 -1 -4 -3 4 -13 7 -24 7 -10 0 -19 4
-19 10 0 5 8 7 18 4 13 -5 14 -4 3 4 -7 5 -23 7 -35 5 -17 -4 -18 -3 -6 6 13
9 13 11 -2 11 -16 0 -23 11 -19 33 2 11 -4 9 -29 -13 -13 -11 -30 -20 -39 -19
-10 0 -12 2 -3 6 18 7 14 24 -5 21 -22 -4 -42 -20 -37 -30 2 -3 -6 -4 -18 0
-13 3 -27 11 -31 19 -4 7 -15 13 -23 13 -8 0 -12 5 -9 10 3 6 4 10 1 10 -3 0
-7 -4 -10 -9z m189 -61 c17 -19 17 -20 1 -20 -20 0 -48 25 -39 34 10 10 19 7
38 -14z m-399 -7 c5 3 18 -1 29 -9 19 -14 17 -15 -21 -12 -34 3 -40 6 -36 21
3 13 7 15 12 7 4 -7 12 -10 16 -7z m118 -22 c-4 -3 -9 0 -11 6 -4 10 -8 9 -20
-2 -8 -8 -20 -15 -26 -14 -8 0 -8 2 1 6 6 2 9 10 6 15 -4 6 -2 8 4 4 6 -3 14
-2 17 4 5 8 11 7 21 -1 8 -6 12 -15 8 -18z m76 9 c12 -8 12 -10 -5 -9 -11 0
-29 4 -40 9 -18 8 -18 9 5 9 14 0 32 -4 40 -9z m260 -30 c0 -5 -2 -10 -4 -10
-3 0 -8 5 -11 10 -3 6 -1 10 4 10 6 0 11 -4 11 -10z m40 -40 c0 -5 -5 -10 -11
-10 -5 0 -7 5 -4 10 3 6 8 10 11 10 2 0 4 -4 4 -10z m86 1 c-3 -5 3 -11 14
-14 10 -3 21 0 23 7 3 8 8 8 19 -1 8 -7 17 -10 21 -7 3 3 14 3 25 0 18 -6 23
-38 8 -53 -4 -5 -7 -3 -6 2 1 6 2 19 1 30 -1 13 -4 16 -12 8 -6 -6 -23 -8 -45
-3 -19 4 -34 6 -34 3 0 -3 -7 0 -15 7 -13 11 -12 30 1 30 3 0 3 -4 0 -9z m304
-55 c0 -2 -7 -6 -15 -10 -8 -3 -15 -1 -15 4 0 6 7 10 15 10 8 0 15 -2 15 -4z
m-70 -26 c0 -5 -8 -10 -17 -10 -15 0 -16 2 -3 10 19 12 20 12 20 0z m330 -80
c-20 -13 -33 -13 -25 0 3 6 14 10 23 10 15 0 15 -2 2 -10z m57 -6 c-3 -3 -12
-4 -19 -1 -8 3 -5 6 6 6 11 1 17 -2 13 -5z"/>
<path d="M5658 3733 c6 -2 10 -9 6 -14 -3 -5 -1 -9 5 -9 17 0 21 18 5 24 -9 3
-19 6 -22 5 -4 0 -1 -3 6 -6z"/>
<path d="M5690 3701 c0 -6 5 -13 10 -16 6 -3 10 1 10 9 0 9 -4 16 -10 16 -5 0
-10 -4 -10 -9z"/>
<path d="M3417 3674 c-13 -14 -7 -34 11 -35 16 0 16 -1 0 -7 -12 -5 -15 -11
-8 -22 12 -19 23 -7 23 25 0 28 -15 50 -26 39z"/>
<path d="M4321 3563 c-1 -44 -5 -73 -12 -73 -5 0 -8 -4 -5 -8 2 -4 1 -13 -3
-20 -7 -12 -33 -16 -81 -13 -24 2 -24 2 -6 16 19 14 18 15 -10 13 -16 -1 -35
-8 -43 -16 -7 -7 -16 -10 -19 -7 -4 3 0 11 8 16 11 8 3 9 -27 6 -35 -4 -43 -2
-48 14 -4 10 -11 19 -16 19 -13 0 -11 -18 4 -23 6 -3 0 -6 -15 -6 -14 -1 -33
-4 -42 -7 -11 -4 -14 0 -11 15 2 13 -1 21 -10 21 -9 0 -12 -6 -8 -15 4 -13 -5
-15 -60 -13 -49 2 -63 0 -56 -9 6 -6 20 -10 31 -8 17 4 19 2 10 -7 -10 -10
-17 -10 -33 1 -15 9 -24 10 -32 2 -8 -8 -7 -11 3 -11 7 0 11 -2 8 -5 -3 -3
-13 -3 -22 1 -16 6 -16 8 1 27 10 11 12 17 6 13 -9 -5 -13 -1 -13 11 -1 17 -1
17 -15 -1 -8 -10 -12 -23 -8 -29 3 -5 -3 -6 -16 -2 -20 6 -21 4 -15 -21 6 -23
4 -26 -9 -21 -9 3 -16 3 -16 -1 4 -22 -3 -31 -18 -25 -11 4 -14 3 -9 -5 5 -8
-1 -12 -15 -12 -17 0 -19 -3 -10 -13 6 -8 8 -16 5 -20 -3 -3 21 -26 53 -52 61
-48 153 -108 153 -100 0 3 9 -4 21 -16 11 -11 27 -18 35 -15 7 3 18 -3 23 -12
7 -12 10 -13 11 -3 0 11 3 11 15 1 9 -7 13 -15 10 -18 -8 -8 26 -29 128 -76
l95 -44 20 97 c12 55 17 97 11 99 -5 2 -9 10 -9 18 0 9 5 12 10 9 6 -3 10 -1
10 4 0 6 -4 11 -8 11 -4 0 -9 11 -10 24 -1 19 2 24 17 21 15 -3 21 5 29 36 7
28 7 39 -2 39 -7 0 -6 3 2 9 19 11 53 144 39 152 -5 4 -8 13 -5 20 3 8 -1 30
-8 49 -12 34 -12 33 -13 -37z"/>
<path d="M5935 3620 c-3 -5 -1 -10 4 -10 6 0 11 5 11 10 0 6 -2 10 -4 10 -3 0
-8 -4 -11 -10z"/>
<path d="M3452 3586 c2 -17 7 -23 20 -21 10 2 21 -1 24 -7 4 -6 2 -8 -4 -4 -6
3 -13 2 -17 -4 -3 -5 1 -10 10 -10 9 0 13 -5 10 -10 -4 -6 -1 -9 7 -8 7 2 12
-3 11 -9 -2 -7 4 -13 13 -13 9 0 12 -5 8 -12 -6 -10 -4 -10 8 0 11 9 18 10 23
2 11 -18 35 -11 35 10 0 13 -7 20 -19 20 -11 0 -26 7 -34 15 -8 8 -18 11 -23
7 -5 -4 -2 2 6 12 12 16 12 18 1 11 -11 -6 -13 -3 -9 12 5 18 1 21 -23 19 -15
-1 -26 2 -23 6 3 4 -2 8 -10 8 -11 0 -15 -8 -14 -24z"/>
<path d="M5970 3579 c0 -5 5 -7 10 -4 6 3 10 8 10 11 0 2 -4 4 -10 4 -5 0 -10
-5 -10 -11z"/>
<path d="M6050 3580 c0 -5 5 -10 11 -10 5 0 7 5 4 10 -3 6 -8 10 -11 10 -2 0
-4 -4 -4 -10z"/>
<path d="M6153 3546 c0 -6 9 -12 19 -12 10 0 18 5 18 11 0 6 -8 11 -18 12 -10
1 -19 -4 -19 -11z"/>
<path d="M3856 3541 c-3 -5 1 -11 9 -14 9 -4 12 -1 8 9 -6 16 -10 17 -17 5z"/>
<path d="M4015 3540 c-3 -5 -1 -10 4 -10 6 0 11 5 11 10 0 6 -2 10 -4 10 -3 0
-8 -4 -11 -10z"/>
<path d="M3895 3500 c-3 -5 -1 -10 4 -10 6 0 11 5 11 10 0 6 -2 10 -4 10 -3 0
-8 -4 -11 -10z"/>
<path d="M4130 3500 c0 -5 5 -10 11 -10 5 0 7 5 4 10 -3 6 -8 10 -11 10 -2 0
-4 -4 -4 -10z"/>
<path d="M6200 3500 c-12 -8 -11 -10 7 -10 12 0 25 5 28 10 8 13 -15 13 -35 0z"/>
<path d="M4268 3463 c7 -3 16 -2 19 1 4 3 -2 6 -13 5 -11 0 -14 -3 -6 -6z"/>
<path d="M3640 3432 c0 -12 39 -47 45 -41 11 12 -9 49 -26 49 -11 0 -19 -4
-19 -8z"/>
<path d="M6560 3430 c0 -5 7 -10 16 -10 8 0 12 5 9 10 -3 6 -10 10 -16 10 -5
0 -9 -4 -9 -10z"/>
</g>
</svg>
