<?xml version="1.0" standalone="no"?>
<!DOCTYPE svg PUBLIC "-//W3C//DTD SVG 20010904//EN"
 "http://www.w3.org/TR/2001/REC-SVG-20010904/DTD/svg10.dtd">
<svg version="1.0" xmlns="http://www.w3.org/2000/svg"
 width="1024.000000pt" height="1024.000000pt" viewBox="0 0 1024.000000 1024.000000"
 preserveAspectRatio="xMidYMid meet">

<g transform="translate(0.000000,1024.000000) scale(0.100000,-0.100000)"
fill="#000000" stroke="none">
<path d="M2941 4644 c0 -11 3 -14 6 -6 3 7 2 16 -1 19 -3 4 -6 -2 -5 -13z"/>
<path d="M7477 4653 c-4 -3 -7 -15 -7 -25 0 -10 -5 -18 -11 -18 -6 0 -9 -6 -6
-12 2 -7 -2 -17 -9 -23 -8 -6 -10 -15 -5 -23 6 -9 15 4 31 43 21 51 23 75 7
58z"/>
<path d="M2920 4546 c0 -31 21 -36 135 -34 64 1 74 3 35 5 -34 3 -58 10 -63
19 -4 8 -21 14 -37 14 -16 0 -32 5 -35 10 -12 19 -35 10 -35 -14z"/>
<path d="M7260 4470 c-8 -5 -28 -10 -43 -10 -25 0 -27 -2 -17 -20 6 -11 7 -20
3 -20 -4 0 -3 -4 2 -8 6 -4 15 -17 22 -29 10 -18 10 -22 -5 -27 -9 -3 3 -3 27
0 59 6 106 31 92 48 -6 7 -7 16 -3 21 4 4 -5 5 -20 1 -24 -5 -28 -3 -35 24 -6
23 -11 27 -23 20z"/>
<path d="M7369 4413 c-13 -16 -12 -17 4 -4 16 13 21 21 13 21 -2 0 -10 -8 -17
-17z"/>
<path d="M7110 4388 c0 -9 35 -28 52 -28 9 1 7 5 -4 14 -10 7 -16 15 -13 17 2
3 -5 5 -15 5 -11 0 -20 -4 -20 -8z"/>
</g>
</svg>
